<mxfile host="app.diagrams.net" modified="2021-03-18T00:06:25.539Z" agent="5.0 (Macintosh; Intel Mac OS X 10_14_3) AppleWebKit/537.36 (KHTML, like Gecko) Chrome/89.0.4389.82 Safari/537.36" etag="d3EJMHCeUAxDZCQartmb" version="14.4.8" type="github">
  <diagram id="9fnjXT7nlAm7Ix4f8WDv" name="Page-1">
    <mxGraphModel dx="543" dy="825" grid="1" gridSize="10" guides="1" tooltips="1" connect="1" arrows="1" fold="1" page="1" pageScale="1" pageWidth="500" pageHeight="500" math="0" shadow="0">
      <root>
        <mxCell id="0" />
        <mxCell id="1" parent="0" />
        <mxCell id="-xf_uFu9KCXf6jcXoVjT-4" value="&lt;font style=&quot;font-size: 23px&quot;&gt;16位源端口号&lt;/font&gt;" style="rounded=1;whiteSpace=wrap;html=1;fontSize=23;fillColor=#6DB5A8;" parent="1" vertex="1">
          <mxGeometry x="20" y="40" width="480" height="60" as="geometry" />
        </mxCell>
        <mxCell id="-xf_uFu9KCXf6jcXoVjT-5" value="16位目的端口号" style="rounded=1;whiteSpace=wrap;html=1;fontSize=23;fillColor=#6DB5A8;" parent="1" vertex="1">
          <mxGeometry x="500" y="40" width="480" height="60" as="geometry" />
        </mxCell>
        <mxCell id="-xf_uFu9KCXf6jcXoVjT-6" value="32位序列编码（Seq）" style="rounded=1;whiteSpace=wrap;html=1;fontSize=23;fillColor=#B9E0A5;" parent="1" vertex="1">
          <mxGeometry x="20" y="100" width="960" height="60" as="geometry" />
        </mxCell>
        <mxCell id="-xf_uFu9KCXf6jcXoVjT-11" value="&lt;font style=&quot;font-size: 23px&quot;&gt;32位确认编码（Ack）&lt;/font&gt;" style="rounded=1;whiteSpace=wrap;html=1;fontSize=23;fillColor=#6DB5A8;" parent="1" vertex="1">
          <mxGeometry x="20" y="160" width="960" height="60" as="geometry" />
        </mxCell>
        <mxCell id="-xf_uFu9KCXf6jcXoVjT-14" value="&lt;font style=&quot;font-size: 23px&quot;&gt;8位的倍数位 可选项&lt;/font&gt;" style="rounded=1;whiteSpace=wrap;html=1;fontSize=23;fillColor=#B9E0A5;" parent="1" vertex="1">
          <mxGeometry x="20" y="340" width="960" height="60" as="geometry" />
        </mxCell>
        <mxCell id="-xf_uFu9KCXf6jcXoVjT-15" value="&lt;font style=&quot;font-size: 23px;&quot;&gt;数据&lt;/font&gt;" style="rounded=1;whiteSpace=wrap;html=1;fontSize=23;fillColor=#6DB5A8;" parent="1" vertex="1">
          <mxGeometry x="20" y="400" width="960" height="60" as="geometry" />
        </mxCell>
        <mxCell id="QUlrv-4_Xu6kGZL0T_s7-1" value="16位窗口大小 （win）" style="rounded=1;whiteSpace=wrap;html=1;fontSize=23;fillColor=#B9E0A5;" vertex="1" parent="1">
          <mxGeometry x="500" y="220" width="480" height="60" as="geometry" />
        </mxCell>
        <mxCell id="QUlrv-4_Xu6kGZL0T_s7-12" value="&lt;font style=&quot;font-size: 23px&quot;&gt;4位头部长度&lt;/font&gt;" style="rounded=1;whiteSpace=wrap;html=1;fontSize=23;fillColor=#B9E0A5;" vertex="1" parent="1">
          <mxGeometry x="20" y="220" width="120" height="60" as="geometry" />
        </mxCell>
        <mxCell id="QUlrv-4_Xu6kGZL0T_s7-18" value="&lt;font style=&quot;font-size: 23px&quot;&gt;6位 保留&lt;/font&gt;" style="rounded=1;whiteSpace=wrap;html=1;fontSize=23;fillColor=#B9E0A5;" vertex="1" parent="1">
          <mxGeometry x="140" y="220" width="180" height="60" as="geometry" />
        </mxCell>
        <mxCell id="QUlrv-4_Xu6kGZL0T_s7-21" value="&lt;blockquote style=&quot;margin: 0px 0px 0px 40px; border: none; padding: 0px; font-size: 10px;&quot;&gt;&lt;/blockquote&gt;&lt;font style=&quot;font-size: 10px;&quot;&gt;URG&lt;/font&gt;" style="rounded=1;whiteSpace=wrap;html=1;fontSize=10;align=left;fillColor=#B9E0A5;" vertex="1" parent="1">
          <mxGeometry x="320" y="220" width="30" height="60" as="geometry" />
        </mxCell>
        <mxCell id="QUlrv-4_Xu6kGZL0T_s7-22" value="ACK" style="rounded=1;whiteSpace=wrap;html=1;fontSize=10;fillColor=#B9E0A5;" vertex="1" parent="1">
          <mxGeometry x="350" y="220" width="30" height="60" as="geometry" />
        </mxCell>
        <mxCell id="QUlrv-4_Xu6kGZL0T_s7-23" value="PSH" style="rounded=1;whiteSpace=wrap;html=1;fontSize=10;fillColor=#B9E0A5;" vertex="1" parent="1">
          <mxGeometry x="380" y="220" width="30" height="60" as="geometry" />
        </mxCell>
        <mxCell id="QUlrv-4_Xu6kGZL0T_s7-24" value="RST" style="rounded=1;whiteSpace=wrap;html=1;fontSize=10;fillColor=#B9E0A5;" vertex="1" parent="1">
          <mxGeometry x="410" y="220" width="30" height="60" as="geometry" />
        </mxCell>
        <mxCell id="QUlrv-4_Xu6kGZL0T_s7-25" value="SYN" style="rounded=1;whiteSpace=wrap;html=1;fontSize=10;fillColor=#B9E0A5;" vertex="1" parent="1">
          <mxGeometry x="440" y="220" width="30" height="60" as="geometry" />
        </mxCell>
        <mxCell id="QUlrv-4_Xu6kGZL0T_s7-26" value="FIN" style="rounded=1;whiteSpace=wrap;html=1;fontSize=10;fillColor=#B9E0A5;" vertex="1" parent="1">
          <mxGeometry x="470" y="220" width="30" height="60" as="geometry" />
        </mxCell>
        <mxCell id="QUlrv-4_Xu6kGZL0T_s7-27" value="16位 紧急指针" style="rounded=1;whiteSpace=wrap;html=1;fontSize=23;fillColor=#6DB5A8;" vertex="1" parent="1">
          <mxGeometry x="500" y="280" width="480" height="60" as="geometry" />
        </mxCell>
        <mxCell id="QUlrv-4_Xu6kGZL0T_s7-28" value="16位 校验和" style="rounded=1;whiteSpace=wrap;html=1;fontSize=23;fillColor=#6DB5A8;" vertex="1" parent="1">
          <mxGeometry x="20" y="280" width="480" height="60" as="geometry" />
        </mxCell>
      </root>
    </mxGraphModel>
  </diagram>
</mxfile>
